<svg xmlns="http://www.w3.org/2000/svg" viewBox="0 0 64 64">
  <defs>
    <linearGradient id="bg" x1="0" y1="0" x2="1" y2="1">
      <stop offset="0" stop-color="#FFC01F"/>
      <stop offset="1" stop-color="#FF6A00"/>
    </linearGradient>
  </defs>
  <rect width="64" height="64" rx="15" fill="url(#bg)"/>

  <!-- cabeça do jacaré -->
  <ellipse cx="32" cy="35" rx="17" ry="16" fill="#8f8f8f"/>
  <!-- focinho -->
  <rect x="22" y="41" width="20" height="12" rx="6" fill="#9e9e9e"/>
  <circle cx="28" cy="47" r="1.4" fill="#3a3a3a"/>
  <circle cx="36" cy="47" r="1.4" fill="#3a3a3a"/>
  <!-- dentinhos -->
  <path d="M25 53 l2 3 2-3 z M31 53 l2 3 2-3 z M37 53 l2 3 2-3 z" fill="#fff"/>
  <!-- olhos -->
  <circle cx="25" cy="31" r="5.4" fill="#fff"/>
  <circle cx="39" cy="31" r="5.4" fill="#fff"/>
  <circle cx="26" cy="32" r="2.5" fill="#1A1420"/>
  <circle cx="38" cy="32" r="2.5" fill="#1A1420"/>
  <!-- boné amarelo -->
  <path d="M15 25 A 17 13 0 0 1 49 25 Z" fill="#FFC01F" stroke="#240020" stroke-width="1.4"/>
  <ellipse cx="49" cy="25" rx="8" ry="3.2" fill="#FFC01F" stroke="#240020" stroke-width="1.4"/>
  <circle cx="32" cy="12" r="2.6" fill="#FF8A00" stroke="#240020" stroke-width="1.2"/>
</svg>
